<?xml version="1.0" encoding="UTF-8" standalone="no"?>
<svg
  version="1.1"
  id="icon"
  xmlns="http://www.w3.org/2000/svg"
  viewBox="0 0 511.99999 511.99999"
  height="512px"
  width="512px"
  xml:space="preserve">
  <g
     transform="translate(0,-540.36219)"
     id="layer1">
    <path
       id="path4212"
       transform="translate(0,540.36219)"
       d="m 234.0957,0.49804688 c -3.08576,0 -4.20484,1.47263002 -5.14453,4.15625002 L 137.94727,310.89062 c -1.44167,5.39374 -4.41157,10.0625 -11.25196,10.0625 l -33.986326,0 c -8.36751,0 -11.183655,2.27081 -12.947265,8.86915 L 32.919922,492.46289 c -2.554,9.5555 4.933771,19.03906 15.99414,19.03906 l 414.171878,0 c 11.0604,0 18.54814,-9.48356 15.99414,-19.03906 l -46.8418,-162.64062 c -1.7636,-6.59834 -4.57976,-8.86915 -12.94726,-8.86915 l -33.98633,0 c -6.84038,0 -9.81029,-4.66876 -11.25196,-10.0625 L 283.04883,4.6542969 c -0.93968,-2.68362 -2.05877,-4.15625002 -5.14453,-4.15625002 z M 252.87891,44.158203 c 2.11394,-1.262022 4.06681,-1.262022 6.24218,-10e-7 l 35.21485,130.130858 c 2.09215,7.808 -2.47252,12.81641 -10.77149,12.81641 l -27.56445,0 -27.56445,0 c -8.29897,0 -12.86364,-5.00841 -10.77149,-12.81641 z M 183.80078,276.43164 c 44.48639,17.22335 100.31542,17.22335 144.39844,0 l 24.83008,99.59961 c -68.9131,27.36983 -124.74213,27.36983 -194.0586,0 z"
       style="fill:#313739;fill-opacity:1;fill-rule:evenodd;stroke:#313739;stroke-width:0.99714667px;stroke-linecap:butt;stroke-linejoin:miter;stroke-opacity:1" />
  </g>
</svg>
